HIERARCHY
ROOT Hips
{
  OFFSET 126.96 91.9987 35.2002
  CHANNELS 6 Xposition Yposition Zposition Zrotation Xrotation Yrotation
  JOINT RightUpLeg
  {
    OFFSET -9.21262 -1.62705 0.0892923
    CHANNELS 3 Zrotation Xrotation Yrotation
    JOINT RightLeg
    {
      OFFSET 0.0960154 -41.8606 0.153467
      CHANNELS 3 Zrotation Xrotation Yrotation
      JOINT RightFoot
      {
        OFFSET 1.33859 -39.7491 3.70458
        CHANNELS 3 Zrotation Xrotation Yrotation
        End Site
        {
          OFFSET 0 -7.69 17.5
        }
      }
    }
  }
  JOINT LeftUpLeg
  {
    OFFSET 9.28909 -1.62806 0.0108209
    CHANNELS 3 Zrotation Xrotation Yrotation
    JOINT LeftLeg
    {
      OFFSET 0.0929201 -41.8886 0.0218006
      CHANNELS 3 Zrotation Xrotation Yrotation
      JOINT LeftFoot
      {
        OFFSET -1.57781 -41.3397 -3.31563
        CHANNELS 3 Zrotation Xrotation Yrotation
        End Site
        {
          OFFSET 0 -7.69 17.5
        }
      }
    }
  }
  JOINT Spine
  {
    OFFSET 0.0128959 14.3037 0.0259321
    CHANNELS 3 Zrotation Xrotation Yrotation
    JOINT Spine1
    {
      OFFSET 0.0143034 9.71252 0.015398
      CHANNELS 3 Zrotation Xrotation Yrotation
      JOINT Spine2
      {
        OFFSET 0.0468817 10.117 -0.0314137
        CHANNELS 3 Zrotation Xrotation Yrotation
        JOINT Spine3
        {
          OFFSET 0.0102655 9.71178 0.00221616
          CHANNELS 3 Zrotation Xrotation Yrotation
          JOINT Neck
          {
            OFFSET -0.0402596 10.3794 0.0231037
            CHANNELS 3 Zrotation Xrotation Yrotation
            JOINT Head
            {
              OFFSET -0.03453 9.49168 0.0708427
              CHANNELS 3 Zrotation Xrotation Yrotation
              End Site
              {
                OFFSET 0 15.95 0
              }
            }
          }
          JOINT RightShoulder
          {
            OFFSET -3.17991 6.93495 0.0309862
            CHANNELS 3 Zrotation Xrotation Yrotation
            JOINT RightArm
            {
              OFFSET -12.8253 0.0342167 0.035901
              CHANNELS 3 Zrotation Xrotation Yrotation
              JOINT RightForeArm
              {
                OFFSET -26.4423 -0.000685918 0.00421057
                CHANNELS 3 Zrotation Xrotation Yrotation
                JOINT RightHand
                {
                  OFFSET -25.9842 -0.0662606 -0.0268032
                  CHANNELS 3 Zrotation Xrotation Yrotation
                  JOINT RightHandThumb1
                  {
                    OFFSET -2.48905 0.190105 3.12053
                    CHANNELS 3 Zrotation Xrotation Yrotation
                    JOINT RightHandThumb2
                    {
                      OFFSET -3.68274 0 0
                      CHANNELS 3 Zrotation Xrotation Yrotation
                      JOINT RightHandThumb3
                      {
                        OFFSET -2.55832 0 0
                        CHANNELS 3 Zrotation Xrotation Yrotation
                        End Site
                        {
                          OFFSET -2.194 0 0
                        }
                      }
                    }
                  }
                  JOINT RightInHandIndex
                  {
                    OFFSET -3.22368 0.508421 1.97842
                    CHANNELS 3 Zrotation Xrotation Yrotation
                    JOINT RightHandIndex1
                    {
                      OFFSET -5.21684 -0.091368 0.999158
                      CHANNELS 3 Zrotation Xrotation Yrotation
                      JOINT RightHandIndex2
                      {
                        OFFSET -3.61937 0 0
                        CHANNELS 3 Zrotation Xrotation Yrotation
                        JOINT RightHandIndex3
                        {
                          OFFSET -2.0521 0 0
                          CHANNELS 3 Zrotation Xrotation Yrotation
                          End Site
                          {
                            OFFSET -1.805 0 0
                          }
                        }
                      }
                    }
                  }
                  JOINT RightInHandMiddle
                  {
                    OFFSET -3.38211 0.517263 0.756737
                    CHANNELS 3 Zrotation Xrotation Yrotation
                    JOINT RightHandMiddle1
                    {
                      OFFSET -5.17411 -0.084 0.313895
                      CHANNELS 3 Zrotation Xrotation Yrotation
                      JOINT RightHandMiddle2
                      {
                        OFFSET -3.94947 0 0
                        CHANNELS 3 Zrotation Xrotation Yrotation
                        JOINT RightHandMiddle3
                        {
                          OFFSET -2.47579 0 0
                          CHANNELS 3 Zrotation Xrotation Yrotation
                          End Site
                          {
                            OFFSET -1.975 0 0
                          }
                        }
                      }
                    }
                  }
                  JOINT RightInHandRing
                  {
                    OFFSET -3.36516 0.537895 -0.128947
                    CHANNELS 3 Zrotation Xrotation Yrotation
                    JOINT RightHandRing1
                    {
                      OFFSET -4.63474 -0.022105 -0.478947
                      CHANNELS 3 Zrotation Xrotation Yrotation
                      JOINT RightHandRing2
                      {
                        OFFSET -3.44238 0 0
                        CHANNELS 3 Zrotation Xrotation Yrotation
                        JOINT RightHandRing3
                        {
                          OFFSET -2.3881 0 0
                          CHANNELS 3 Zrotation Xrotation Yrotation
                          End Site
                          {
                            OFFSET -1.857 0 0
                          }
                        }
                      }
                    }
                  }
                  JOINT RightInHandPinky
                  {
                    OFFSET -3.16105 0.469368 -1.20179
                    CHANNELS 3 Zrotation Xrotation Yrotation
                    JOINT RightHandPinky1
                    {
                      OFFSET -4.14105 -0.022105 -1.09053
                      CHANNELS 3 Zrotation Xrotation Yrotation
                      JOINT RightHandPinky2
                      {
                        OFFSET -2.75653 0 0
                        CHANNELS 3 Zrotation Xrotation Yrotation
                        JOINT RightHandPinky3
                        {
                          OFFSET -1.74189 0 0
                          CHANNELS 3 Zrotation Xrotation Yrotation
                          End Site
                          {
                            OFFSET -1.645 0 0
                          }
                        }
                      }
                    }
                  }
                }
              }
            }
          }
          JOINT LeftShoulder
          {
            OFFSET 3.21113 6.90952 -0.0469957
            CHANNELS 3 Zrotation Xrotation Yrotation
            JOINT LeftArm
            {
              OFFSET 12.7919 -0.0331125 -0.0859637
              CHANNELS 3 Zrotation Xrotation Yrotation
              JOINT LeftForeArm
              {
                OFFSET 26.4755 -0.0026531 -0.0242133
                CHANNELS 3 Zrotation Xrotation Yrotation
                JOINT LeftHand
                {
                  OFFSET 25.9936 -0.03295 -0.105102
                  CHANNELS 3 Zrotation Xrotation Yrotation
                  JOINT LeftHandThumb1
                  {
                    OFFSET 2.48905 0.190105 3.12053
                    CHANNELS 3 Zrotation Xrotation Yrotation
                    JOINT LeftHandThumb2
                    {
                      OFFSET 3.68274 0 0
                      CHANNELS 3 Zrotation Xrotation Yrotation
                      JOINT LeftHandThumb3
                      {
                        OFFSET 2.55832 0 0
                        CHANNELS 3 Zrotation Xrotation Yrotation
                        End Site
                        {
                          OFFSET 2.194 0 0
                        }
                      }
                    }
                  }
                  JOINT LeftInHandIndex
                  {
                    OFFSET 3.22368 0.508421 1.97842
                    CHANNELS 3 Zrotation Xrotation Yrotation
                    JOINT LeftHandIndex1
                    {
                      OFFSET 5.21684 -0.091368 0.999158
                      CHANNELS 3 Zrotation Xrotation Yrotation
                      JOINT LeftHandIndex2
                      {
                        OFFSET 3.61937 0 0
                        CHANNELS 3 Zrotation Xrotation Yrotation
                        JOINT LeftHandIndex3
                        {
                          OFFSET 2.0521 0 0
                          CHANNELS 3 Zrotation Xrotation Yrotation
                          End Site
                          {
                            OFFSET 1.805 0 0
                          }
                        }
                      }
                    }
                  }
                  JOINT LeftInHandMiddle
                  {
                    OFFSET 3.38211 0.517263 0.756737
                    CHANNELS 3 Zrotation Xrotation Yrotation
                    JOINT LeftHandMiddle1
                    {
                      OFFSET 5.17411 -0.084 0.313895
                      CHANNELS 3 Zrotation Xrotation Yrotation
                      JOINT LeftHandMiddle2
                      {
                        OFFSET 3.94947 0 0
                        CHANNELS 3 Zrotation Xrotation Yrotation
                        JOINT LeftHandMiddle3
                        {
                          OFFSET 2.47579 0 0
                          CHANNELS 3 Zrotation Xrotation Yrotation
                          End Site
                          {
                            OFFSET 1.975 0 0
                          }
                        }
                      }
                    }
                  }
                  JOINT LeftInHandRing
                  {
                    OFFSET 3.36516 0.537895 -0.128947
                    CHANNELS 3 Zrotation Xrotation Yrotation
                    JOINT LeftHandRing1
                    {
                      OFFSET 4.63474 -0.022105 -0.478947
                      CHANNELS 3 Zrotation Xrotation Yrotation
                      JOINT LeftHandRing2
                      {
                        OFFSET 3.44238 0 0
                        CHANNELS 3 Zrotation Xrotation Yrotation
                        JOINT LeftHandRing3
                        {
                          OFFSET 2.3881 0 0
                          CHANNELS 3 Zrotation Xrotation Yrotation
                          End Site
                          {
                            OFFSET 1.857 0 0
                          }
                        }
                      }
                    }
                  }
                  JOINT LeftInHandPinky
                  {
                    OFFSET 3.16105 0.469368 -1.20179
                    CHANNELS 3 Zrotation Xrotation Yrotation
                    JOINT LeftHandPinky1
                    {
                      OFFSET 4.14105 -0.022105 -1.09053
                      CHANNELS 3 Zrotation Xrotation Yrotation
                      JOINT LeftHandPinky2
                      {
                        OFFSET 2.75653 0 0
                        CHANNELS 3 Zrotation Xrotation Yrotation
                        JOINT LeftHandPinky3
                        {
                          OFFSET 1.74189 0 0
                          CHANNELS 3 Zrotation Xrotation Yrotation
                          End Site
                          {
                            OFFSET 1.645 0 0
                          }
                        }
                      }
                    }
                  }
                }
              }
            }
          }
        }
      }
    }
  }
}
MOTION
Frames: 3
Frame Time: 0.00833333
1.500010155377640331e+02 -1.835672506906819035e-04 9.129524650532198611e-05 -3.525232471930851014e-02 -6.877915552005491734e-03 -7.085253112101054518e-02 6.843933019568008980e-02 2.903068482167558972e-02 1.073384651238341037e-01 4.714272124275717575e-03 1.150879750080589705e-03 -1.319583564798649947e-04 -6.216053134110834447e-04 -5.173552855063500572e-03 -1.435464193065663510e-03 -1.308261840795693067e-03 4.599964934665710242e-02 3.351420224496123174e-02 -5.261138892965576755e-03 -1.033835836881635481e-02 2.097358084960411484e-02 4.870886826900629185e-03 1.240254349140060275e-02 -9.171121909331945640e-03 -2.763037090128808715e-02 -5.689598506650359391e-03 2.555837704006077085e-02 -5.157851687840241985e-03 3.659050895158399725e-04 4.061646974680472102e-03 -8.666321417147477418e-03 7.969250908305182141e-04 8.143485749632457457e-03 -2.452283564935997268e-04 6.992409402235904518e-04 1.932574480403935653e-03 -3.163469041515190724e-04 5.959897428687271469e-04 2.006705740886874974e-03 -8.526091113731039308e-04 1.522374479644827625e-02 2.611382846830210061e-02 1.952358383794323624e-02 4.319228574659752552e-03 2.278963862940629539e-02 -3.124633857707831974e-01 -3.124279598119531973e-02 2.268385297688197411e-01 -1.893580028034232976e-01 -4.762781154517941595e-01 -1.871597644844482100e-01 -9.905909060001388822e-02 -7.601122101350502036e-02 4.606509049523322546e-02 0.000000000000000000e+00 0.000000000000000000e+00 0.000000000000000000e+00 7.286137701633862796e-15 6.355808152076168867e-15 0.000000000000000000e+00 -3.045267296061056941e-15 3.358042567578176080e-15 0.000000000000000000e+00 -1.589328671182049075e-15 2.840379480792332498e-16 1.196698485828043160e-16 0.000000000000000000e+00 0.000000000000000000e+00 0.000000000000000000e+00 0.000000000000000000e+00 4.985056975380987024e-16 2.947558939630843379e-15 0.000000000000000000e+00 2.427752670428554868e-16 -4.474406028104043015e-15 -1.589328671182049075e-15 2.840379480792332498e-16 1.196698485828043160e-16 0.000000000000000000e+00 -1.055587223134729680e-15 4.394546268130231103e-15 0.000000000000000000e+00 -2.696870544206603420e-15 2.852424706593522550e-15 0.000000000000000000e+00 -2.407216993129722264e-15 -7.534889334477877987e-15 -1.589328671182049075e-15 2.840379480792332498e-16 1.196698485828043160e-16 0.000000000000000000e+00 0.000000000000000000e+00 0.000000000000000000e+00 0.000000000000000000e+00 1.220439593862440330e-15 -8.478056621173364499e-15 0.000000000000000000e+00 4.179076661998313127e-15 9.808000547435452565e-15 -1.589328671182049075e-15 2.840379480792332498e-16 1.196698485828043160e-16 0.000000000000000000e+00 0.000000000000000000e+00 0.000000000000000000e+00 0.000000000000000000e+00 1.324797897103973026e-15 2.210071085952797481e-15 0.000000000000000000e+00 -1.831096063444251942e-15 -2.707469512376653988e-15 -1.638974083728584816e-02 1.545943979933632126e-02 8.076382776318574708e-02 8.136875865461121182e-02 -2.116834940735298418e-02 -9.990564283397884715e-02 9.250803297788010582e-01 2.989115586361733579e-01 8.693107516326519235e-01 -4.536291745470962811e-01 6.622926077695842073e-01 1.895669303814779758e-02 0.000000000000000000e+00 0.000000000000000000e+00 0.000000000000000000e+00 -1.231189357350460758e-14 -3.559107420822143967e-16 0.000000000000000000e+00 1.838311622024212933e-15 3.013613718468254379e-15 0.000000000000000000e+00 -1.169976769272409252e-15 1.118388997031743012e-15 2.599897682992369828e-15 0.000000000000000000e+00 0.000000000000000000e+00 0.000000000000000000e+00 0.000000000000000000e+00 -1.219198191426340686e-16 1.275591506482024711e-14 0.000000000000000000e+00 -3.761443525201189504e-17 1.755045899884704764e-15 -1.169976769272409252e-15 1.118388997031743012e-15 2.599897682992369828e-15 0.000000000000000000e+00 3.456270438466463445e-15 3.722756521501820381e-15 0.000000000000000000e+00 3.772274999832216334e-15 1.162928258490521110e-14 0.000000000000000000e+00 8.804929178451601753e-16 1.035866205074855860e-14 -1.169976769272409252e-15 1.118388997031743012e-15 2.599897682992369828e-15 0.000000000000000000e+00 0.000000000000000000e+00 0.000000000000000000e+00 0.000000000000000000e+00 1.575096286164067384e-15 1.176807872952267441e-15 0.000000000000000000e+00 7.770188270323560239e-16 5.723400508654023220e-15 -1.169976769272409252e-15 1.118388997031743012e-15 2.599897682992369828e-15 0.000000000000000000e+00 0.000000000000000000e+00 0.000000000000000000e+00 0.000000000000000000e+00 -1.195463785701494178e-15 1.098179323557043708e-14 0.000000000000000000e+00 1.902029877764758569e-15 5.506967765195753501e-15
1.500021892883536339e+02 -1.517049015177785376e-03 -1.503820575245349948e-03 -2.500243117369459894e-02 -1.080246510553165354e-02 -5.459753659724531083e-02 6.356793037355822074e-02 1.482967477178745962e-02 1.012551895844507055e-01 4.691208736550057587e-03 6.101816445382687686e-03 3.953718624182460221e-04 -7.362452809126160402e-04 -2.395472985369236779e-03 -5.714596607784211586e-03 1.664982222094614842e-02 3.957089964401674931e-02 3.412416843333436478e-02 -1.706961300490701314e-02 -7.216711470924344878e-04 2.638154924770468729e-02 2.425560136613416976e-04 5.031658890696213450e-03 -8.959963827005033507e-03 -2.048754815940066407e-02 -7.448116617361430492e-03 2.041831419833770381e-02 -5.770781046744674972e-03 9.997911758668364844e-05 5.413214838274688773e-03 -9.368551523319406174e-03 8.176044757438622607e-04 6.907886143989667646e-03 1.845449466253285190e-05 7.285355974162000502e-04 1.224885009121910685e-03 5.176147193459627551e-05 5.922388531752807803e-04 1.280717087253633148e-03 5.415052222810738669e-03 1.726170014340918865e-02 1.474729744841318108e-02 8.157978428348488381e-03 2.901429145055387480e-03 1.299565807028177367e-02 -2.727385395462925688e-01 -1.263367378328825695e-02 1.936176156201861454e-01 -1.609859532244313496e-01 -5.729804653355395905e-01 -8.378516620623246980e-02 -1.285810826423427478e-01 4.025577669914855994e-01 -4.093718839456167435e-01 0.000000000000000000e+00 0.000000000000000000e+00 0.000000000000000000e+00 7.493377088427393583e-16 -8.106599508657009783e-15 0.000000000000000000e+00 3.185811423570169229e-15 -2.129833842709494080e-15 0.000000000000000000e+00 2.102813055347280323e-16 -5.573735664895410963e-15 4.660458348318811296e-16 0.000000000000000000e+00 0.000000000000000000e+00 0.000000000000000000e+00 0.000000000000000000e+00 -2.503850811519008178e-15 2.030283217531142790e-15 0.000000000000000000e+00 3.250868654688790975e-16 -3.018985870125258618e-15 2.102813055347280323e-16 -5.573735664895410963e-15 4.660458348318811296e-16 0.000000000000000000e+00 -5.261102362822891029e-16 -9.453814041628991995e-16 0.000000000000000000e+00 -3.036277076127167691e-15 5.761971734985156953e-17 0.000000000000000000e+00 2.033424349827644366e-15 1.760124866415663358e-15 2.102813055347280323e-16 -5.573735664895410963e-15 4.660458348318811296e-16 0.000000000000000000e+00 0.000000000000000000e+00 0.000000000000000000e+00 0.000000000000000000e+00 -2.043784588406957932e-15 7.147104394355800125e-15 0.000000000000000000e+00 -1.270804829197164995e-15 -5.451862348024624229e-15 2.102813055347280323e-16 -5.573735664895410963e-15 4.660458348318811296e-16 0.000000000000000000e+00 0.000000000000000000e+00 0.000000000000000000e+00 0.000000000000000000e+00 -1.061446768566986746e-15 1.672772492039664319e-16 0.000000000000000000e+00 -4.931205895313148655e-16 -6.583053706217559450e-17 -2.490430619186663475e-02 1.680270976847797471e-02 8.940819172849685803e-02 8.716680396747519821e-02 -2.704364279282244973e-02 -1.058172235861763455e-01 2.205195457980963225e-01 1.224354794700670684e-01 1.786001540537616727e-01 -5.043937817996233530e-01 5.943362737469387591e-01 2.181619831750342131e-02 0.000000000000000000e+00 0.000000000000000000e+00 0.000000000000000000e+00 3.559642407351169119e-15 2.416557919399565568e-15 0.000000000000000000e+00 4.865174017414887821e-16 6.602355721375100959e-16 0.000000000000000000e+00 6.986980050621168384e-16 -7.777372530179663601e-17 -1.442887108305719249e-15 0.000000000000000000e+00 0.000000000000000000e+00 0.000000000000000000e+00 0.000000000000000000e+00 -1.410329519957099052e-15 -9.107586856658854500e-16 0.000000000000000000e+00 7.646803052135012373e-16 8.752685161735086864e-16 6.986980050621168384e-16 -7.777372530179663601e-17 -1.442887108305719249e-15 0.000000000000000000e+00 -4.673305658669209202e-15 -5.061192101111936646e-15 0.000000000000000000e+00 3.078138117783051087e-15 -3.023930646735405338e-15 0.000000000000000000e+00 2.854376361208259903e-15 -6.530212324470739453e-15 6.986980050621168384e-16 -7.777372530179663601e-17 -1.442887108305719249e-15 0.000000000000000000e+00 0.000000000000000000e+00 0.000000000000000000e+00 0.000000000000000000e+00 -6.533935761974770494e-16 -6.852633820984072807e-16 0.000000000000000000e+00 -2.071275182653772739e-15 -4.689259290664230079e-16 6.986980050621168384e-16 -7.777372530179663601e-17 -1.442887108305719249e-15 0.000000000000000000e+00 0.000000000000000000e+00 0.000000000000000000e+00 0.000000000000000000e+00 2.780852388836683565e-15 -8.822936816909022416e-15 0.000000000000000000e+00 2.612373539547504889e-16 -6.898990369679731589e-15
1.500003305482073301e+02 -1.566108121418625021e-03 1.830828839803943240e-03 -2.953860401550075648e-02 -9.070377654357687086e-03 -5.335710461785157788e-02 4.485032249633489482e-02 1.849500987549004133e-02 8.068451726034728266e-02 7.611978702116359990e-03 1.835314963380256211e-03 1.951891339540200512e-03 -3.736834677911794050e-03 4.669915102903656693e-04 -5.286285746222356419e-03 3.758952477473297311e-03 3.914850945875042454e-02 2.210505725011352104e-02 -1.698485761866783475e-02 -3.551845002631421645e-03 2.692919519536374554e-02 2.382878960186869850e-03 6.008321589523381995e-03 -8.659325506839121722e-03 -2.134407562689677462e-02 -6.051728361483345135e-03 1.515254379558558448e-02 -3.427787143924517551e-03 -6.385310599990914318e-04 1.250759487438051452e-03 -5.869106698360362397e-03 -1.188170412075715242e-03 4.221296737742252954e-03 -1.645716742483771490e-04 7.843740414140551367e-04 2.193522638641836296e-03 -2.193005223738465350e-04 6.445353579808846354e-04 2.417003831864913792e-03 2.430914563920908399e-03 2.398902415251120621e-02 2.843007463433464346e-02 1.310049704747089268e-02 6.109676997310718900e-03 2.332442591845869731e-02 -1.921470045127521564e-01 -2.054656822463324720e-02 1.306238056174498230e-01 -9.991913779765393411e-02 -4.221250019781781493e-01 -1.248604351033495014e-02 -1.075573298979553422e-01 7.515978051617819844e-01 -7.799029658302463197e-01 0.000000000000000000e+00 0.000000000000000000e+00 0.000000000000000000e+00 8.690231328458458273e-15 4.788026070071264649e-15 0.000000000000000000e+00 -2.967772661465300471e-15 3.621804322417150094e-15 0.000000000000000000e+00 -2.653889084303266991e-15 -7.120050770955346508e-17 8.717647343564455233e-16 0.000000000000000000e+00 0.000000000000000000e+00 0.000000000000000000e+00 0.000000000000000000e+00 1.812420544300830484e-15 6.886042378253970510e-16 0.000000000000000000e+00 6.820939941259618155e-16 -3.047280904347948798e-15 -2.653889084303266991e-15 -7.120050770955346508e-17 8.717647343564455233e-16 0.000000000000000000e+00 -1.133670549053970431e-15 4.303779735393646267e-15 0.000000000000000000e+00 -3.970286539330040059e-15 8.652119115801201082e-15 0.000000000000000000e+00 -2.331003209879683355e-15 -1.109211953688112497e-14 -2.653889084303266991e-15 -7.120050770955346508e-17 8.717647343564455233e-16 0.000000000000000000e+00 0.000000000000000000e+00 0.000000000000000000e+00 0.000000000000000000e+00 8.063618169946917156e-16 -5.985189878411083225e-15 0.000000000000000000e+00 4.197893423647004385e-15 9.091351968217627303e-15 -2.653889084303266991e-15 -7.120050770955346508e-17 8.717647343564455233e-16 0.000000000000000000e+00 0.000000000000000000e+00 0.000000000000000000e+00 0.000000000000000000e+00 3.014388565371301294e-17 2.361625486462019289e-15 0.000000000000000000e+00 -2.621264450880016057e-15 -2.390436890722136698e-15 -2.490495730992120862e-02 1.608930201924692674e-02 9.792960303662087695e-02 9.374885457968694380e-02 -2.934060763862156307e-02 -1.134138354620211758e-01 -5.526427889984458774e-01 -7.093032788212655718e-03 -5.964321543230957090e-01 -5.993389064665897159e-01 5.233492707252371812e-01 3.305976653501363494e-02 0.000000000000000000e+00 0.000000000000000000e+00 0.000000000000000000e+00 -1.124171838977884390e-14 1.673883288506986956e-15 0.000000000000000000e+00 3.091671840441785446e-15 4.359103223565108146e-15 0.000000000000000000e+00 -1.904937282144259865e-15 2.821000711449220863e-15 4.211165067855130836e-15 0.000000000000000000e+00 0.000000000000000000e+00 0.000000000000000000e+00 0.000000000000000000e+00 4.962730919838352060e-16 1.315219771497675447e-14 0.000000000000000000e+00 -9.825960177411470471e-16 -5.049275949188774314e-16 -1.904937282144259865e-15 2.821000711449220863e-15 4.211165067855130836e-15 0.000000000000000000e+00 4.175360444841728458e-15 5.453119658114236497e-15 0.000000000000000000e+00 4.514225589869680175e-15 1.163631955045890070e-14 0.000000000000000000e+00 1.256251955245515301e-15 1.308312327335674405e-14 -1.904937282144259865e-15 2.821000711449220863e-15 4.211165067855130836e-15 0.000000000000000000e+00 0.000000000000000000e+00 0.000000000000000000e+00 0.000000000000000000e+00 1.455213112923007398e-15 -2.063314338024862295e-15 0.000000000000000000e+00 3.072934542273954758e-16 2.537998714252473097e-15 -1.904937282144259865e-15 2.821000711449220863e-15 4.211165067855130836e-15 0.000000000000000000e+00 0.000000000000000000e+00 0.000000000000000000e+00 0.000000000000000000e+00 -1.564806721081754782e-15 1.296959847383487240e-14 0.000000000000000000e+00 2.425392870586380061e-15 4.998087338478656909e-15
